<svg width="64" height="64" viewBox="0 0 64 64" fill="none" xmlns="http://www.w3.org/2000/svg">
  <rect width="64" height="64" rx="16" fill="white"/>
  <path d="M12 16C12 12.6863 14.6863 10 18 10H46C49.3137 10 52 12.6863 52 16V20H12V16Z" fill="#FAE29C"/>
  <path d="M12 20H52V36C52 39.3137 49.3137 42 46 42H18C14.6863 42 12 39.3137 12 36V20Z" fill="#A78BFA"/>
  <path d="M12 36C12 39.3137 14.6863 42 18 42H46C49.3137 42 52 44.6863 52 48V48C52 51.3137 49.3137 54 46 54H18C14.6863 54 12 51.3137 12 48V36Z" fill="black"/>
  <path d="M27.9998 44.9998L24.9998 42.0002L23.5856 43.4144L27.9998 47.8286L40.414 35.4144L38.9998 34.0002L27.9998 44.9998Z" fill="white"/>
</svg>
